<?xml version="1.0" encoding="utf-8"?>
<!-- Generator: Adobe Illustrator 16.0.0, SVG Export Plug-In . SVG Version: 6.00 Build 0)  -->
<!DOCTYPE svg PUBLIC "-//W3C//DTD SVG 1.1//EN" "http://www.w3.org/Graphics/SVG/1.1/DTD/svg11.dtd">
<svg version="1.1" id="Layer_1" xmlns="http://www.w3.org/2000/svg" xmlns:xlink="http://www.w3.org/1999/xlink" x="0px" y="0px"
	 width="329.5px" height="189.953px" viewBox="-17 -15.364 329.5 189.953" enable-background="new -17 -15.364 329.5 189.953"
	 xml:space="preserve">
<path fill="#FFFFFF" d="M309.436,61.397c0-15.76-12.776-28.535-28.535-28.535c-1.188,0-2.355,0.08-3.506,0.223
	c-4.771-22.147-24.454-38.749-48.026-38.749c-6.799,0-13.274,1.383-19.161,3.876C201.909-8.184,191.521-12,180.232-12
	c-10.727,0-20.642,3.447-28.722,9.28c-8.005-5.657-17.768-8.991-28.315-8.991c-14.199,0-26.986,6.031-35.955,15.662
	c-5.968-2.577-12.542-4.009-19.455-4.009c-20.438,0-37.959,12.479-45.364,30.235c-1.849-0.369-3.756-0.566-5.712-0.566
	c-15.963,0-28.903,12.942-28.903,28.903c0,11.022,6.17,20.6,15.24,25.475c-0.496,2.801-0.758,5.681-0.758,8.625
	c0,27.137,21.998,49.136,49.136,49.136c7.103,0,13.847-1.521,19.944-4.232c8.705,13.779,24.058,22.935,41.561,22.935
	c10.572,0,20.355-3.349,28.372-9.028c8.985,11.656,23.077,19.174,38.93,19.174c21.841,0,40.343-14.253,46.737-33.961
	c4.027,1.068,8.257,1.646,12.621,1.646c27.14,0,49.138-22,49.138-49.139c0-0.102-0.006-0.201-0.007-0.303
	C300.678,85.438,309.436,74.444,309.436,61.397z"/>
<g>
	<path fill="#A77C44" d="M217.237,9.331c0,0-12.692,23.61-12.709,23.644c-1.463,2.721-1.56,6.032-0.256,8.83
		c1.979,4.25,4.829,4.239,2.523,9.365c-1.089,2.421-2.546,4.74-3.805,7.079c-3.547,6.598-7.094,13.198-10.642,19.799
		c-6.485,12.061-12.967,24.124-19.449,36.186c-0.542,1.007-1.085,2.013-1.624,3.021c-1.076,1.997-0.326,4.49,1.673,5.564
		c1.999,1.072,4.491,0.322,5.564-1.675c11.343-21.099,22.681-42.199,34.023-63.3c0.898-1.668,1.813-5.047,3.612-5.985
		c1.913-0.995,3.074,0.306,5.219,0.521c3.937,0.397,7.821-1.649,9.7-5.143c0-0.002,12.708-23.644,12.708-23.644L217.237,9.331z"/>
	<path fill="#A77C44" stroke="#8D5623" stroke-miterlimit="10" d="M227.646,18.89l-7.477,19.693c0,0-2.957,7.885,4.786,9.179"/>
	<path fill="#A77C44" stroke="#8D5623" stroke-miterlimit="10" d="M221.914,26.279l-5.062,10.522c0,0-3.132,7.793-8.482,2.047"/>
</g>
<g>
	<path fill="#A77C44" d="M175.963,13.781c0,0-3.777,26.537-3.782,26.575c-0.436,3.057,0.614,6.2,2.805,8.379
		c3.319,3.304,5.994,2.312,5.595,7.92c-0.187,2.648-0.758,5.327-1.134,7.955c-1.058,7.419-2.112,14.839-3.168,22.256
		c-1.933,13.556-3.862,27.112-5.793,40.671c-0.161,1.13-0.32,2.264-0.482,3.395c-0.319,2.245,1.24,4.326,3.487,4.646
		c2.247,0.318,4.329-1.242,4.646-3.489c3.378-23.714,6.753-47.429,10.133-71.144c0.267-1.876-0.036-5.364,1.328-6.864
		c1.451-1.592,2.992-0.772,5.075-1.307c3.835-0.986,6.779-4.247,7.335-8.172c0.002-0.001,3.786-26.575,3.786-26.575L175.963,13.781z
		"/>
	<path fill="#A77C44" stroke="#8D5623" stroke-miterlimit="10" d="M189.029,19.169L188.8,40.233c0,0-0.065,8.421,7.652,6.969"/>
	<path fill="#A77C44" stroke="#8D5623" stroke-miterlimit="10" d="M186.197,28.079l-1.129,11.622c0,0-0.255,8.393-7.26,4.845"/>
</g>
<path fill="#8D5623" d="M251.546,65.08c-0.041,0-0.078,0.009-0.117,0.01c-36.342-1.302-204.18,5.392-224.345,6.169
	c-0.273-0.067-0.555-0.113-0.85-0.113c-1.98,0-3.585,1.605-3.585,3.584c0,1.616,1.074,2.966,2.543,3.415v0.12l7.374,0.695
	c6.485,73.483,127.224,60.088,127.224,60.088c76.003-4.143,85.554-67.715,85.554-67.715h6.113v-0.193c0.03,0,0.058,0.008,0.09,0.008
	c1.673,0,3.032-1.359,3.032-3.033C254.577,66.435,253.217,65.08,251.546,65.08z"/>
<path fill="#A0ACB3" d="M143.693,53.663c-3.633-0.899-7.308,1.318-8.207,4.952c-0.766,3.1,0.74,6.223,3.453,7.632l-0.768,3.092
	c-0.21,0.854,0.312,1.72,1.167,1.932c0.853,0.212,1.719-0.311,1.929-1.165l0.767-3.093c3.058,0.016,5.845-2.045,6.609-5.146
	C149.544,58.237,147.326,54.561,143.693,53.663z M142.313,63.431c-1.799,0-3.257-1.457-3.257-3.256s1.458-3.256,3.257-3.256
	c1.8,0,3.257,1.458,3.257,3.256S144.113,63.431,142.313,63.431z"/>
</svg>
