<?xml version="1.0" encoding="utf-8"?>
<!-- Generator: Adobe Illustrator 16.0.0, SVG Export Plug-In . SVG Version: 6.00 Build 0)  -->
<!DOCTYPE svg PUBLIC "-//W3C//DTD SVG 1.1//EN" "http://www.w3.org/Graphics/SVG/1.1/DTD/svg11.dtd">
<svg version="1.1" id="Layer_1" xmlns="http://www.w3.org/2000/svg" xmlns:xlink="http://www.w3.org/1999/xlink" x="0px" y="0px"
	 width="370px" height="105px" viewBox="10.714 7.5 370 105" enable-background="new 10.714 7.5 370 105" xml:space="preserve">
<path fill="#F5DB7A" d="M377.392,60.562c-3.065,1.58-6.426,6.609-9.239,9.226c-7.978,7.407-16.242,13.958-24.703,19.622
	c-23.732,15.889-49.863,25.377-75.22,19.391c-5.918-1.398-12.127-3.615-17.838-7.234c-5.914-3.746-10.406-9.896-15.992-14.61
	c-5.227-4.411-9.936-10.938-14.907-16.214c-10.111-10.734-21.068-19.299-33.25-21.074c-13.372-1.948-26.898,1.232-39.883,7.148
	c-6.439,2.934-12.772,6.55-18.999,10.614c-11.42,7.456-22.254,17.215-33.616,24.9C67.856,109.836,35.7,122.558,15.731,79.382
	c35.676,18.945,71.388-8.234,102.128-39.79c0.099-0.103,0.191-0.238,0.287-0.352c12.87-15.43,29.017-24.73,44.499-28.296
	c14.282-3.291,28.816-1.321,42.489,5.631c8.434,4.286,16.49,10.389,24.049,17.827c10.832,10.657,19.084,26.508,30.574,35.529
	c8.76,6.875,18.484,10.014,28.123,11.625C317.849,86.563,348.71,75.349,377.392,60.562z"/>
</svg>
