<?xml version="1.0" encoding="utf-8"?>
<!-- Generator: Adobe Illustrator 16.0.0, SVG Export Plug-In . SVG Version: 6.00 Build 0)  -->
<!DOCTYPE svg PUBLIC "-//W3C//DTD SVG 1.1//EN" "http://www.w3.org/Graphics/SVG/1.1/DTD/svg11.dtd">
<svg version="1.1" id="Layer_1" xmlns="http://www.w3.org/2000/svg" xmlns:xlink="http://www.w3.org/1999/xlink" x="0px" y="0px"
	 width="535px" height="78px" viewBox="15.357 8.435 535 78" enable-background="new 15.357 8.435 535 78" xml:space="preserve">
<path fill="#F5DB7A" d="M18.904,44.766c2.337-1.072,4.815-4.47,6.932-6.239c5.997-5.01,12.239-9.442,18.655-13.278
	C72.72,8.372,111.576,1.088,140.753,32.35c9.248,9.907,16.297,18.144,26.578,19.417c10.413,1.289,20.817-0.881,30.733-4.893
	c12.995-5.259,25.458-16.58,38.322-23.318c8.866-4.644,18.322-7.109,27.85-7.167c16.473-0.101,32.52,7.268,46.867,19.407
	c0.006,0.002,40.404,34.178,84.246-3.573c36.271-31.233,48.84,1.549,71.971,13.188c28.059,14.118,51.672-5.134,79.49-18.239
	c-4.643,2.186-10.537,17.09-14.764,22.472c-11.422,14.549-23.904,25.09-36.971,28.758c-11.508,3.23-23.453-2.793-34.635-14.418
	c-7.914-8.229-15.842-17.398-24.18-21.296c-12.234-5.72-24.504,4.334-35.428,14.142c-22.48,20.174-43.664,36.939-68.631,20.875
	c-21.619-13.914-42.688-41.758-64.976-40.746c-14.951,0.679-31.566,7.389-45.477,18.695c-17.374,14.121-34.832,24.25-54.029,20.436
	c-19.637-3.902-39.042-25.354-57.878-37.855c-6.96-4.621-14.576-6.72-22.086-7.789C64.403,27.12,40.766,34.741,18.904,44.766z"/>
</svg>
