<?xml version="1.0" encoding="utf-8"?>
<!-- Generator: Adobe Illustrator 16.0.0, SVG Export Plug-In . SVG Version: 6.00 Build 0)  -->
<!DOCTYPE svg PUBLIC "-//W3C//DTD SVG 1.1//EN" "http://www.w3.org/Graphics/SVG/1.1/DTD/svg11.dtd">
<svg version="1.1" id="Layer_1" xmlns="http://www.w3.org/2000/svg" xmlns:xlink="http://www.w3.org/1999/xlink" x="0px" y="0px"
	 width="362px" height="95px" viewBox="0 0 362 95" enable-background="new 0 0 362 95" xml:space="preserve">
<path fill="#F5DB7A" d="M313.676,28.08c16.992,6.533,30.732,21.963,47.132,35.41c-0.156-0.062,0.202-0.09,0.123,0.082
	c-23.88-16.359-55.21-20.568-81.81-9.25c-25.438,10.825-46.709,34.461-73.428,38.069c-14.439,1.947-28.198,0.604-41.342-7.961
	c-12.667-8.257-22.191-21.646-34.01-31.92C116.378,40.371,99.709,24,84.709,24.333c-10.055-0.042-19.104-0.604-29.221,2.678
	C36.042,33.317,21.135,48.443,1.058,52.313c1.938-3.899,3.999-7.523,6.171-10.892c10.839-16.783,24.48-27.14,39.801-33.418
	c19.398-7.95,40.625-8.001,60.091-1.452c16.635,5.6,29.1,20.88,43.078,34.043c27.243,25.648,61.762,21.799,91.562,7.594
	c12.519-5.969,24.238-15.698,37.015-20.073c33.479-11.465,64.125,8.807,82.03,35.375"/>
</svg>
