<?xml version="1.0" encoding="utf-8"?>
<!-- Generator: Adobe Illustrator 16.0.0, SVG Export Plug-In . SVG Version: 6.00 Build 0)  -->
<!DOCTYPE svg PUBLIC "-//W3C//DTD SVG 1.1//EN" "http://www.w3.org/Graphics/SVG/1.1/DTD/svg11.dtd">
<svg version="1.1" id="Layer_1" xmlns="http://www.w3.org/2000/svg" xmlns:xlink="http://www.w3.org/1999/xlink" x="0px" y="0px"
	 width="495px" height="75px" viewBox="5.712 9.935 495 75" enable-background="new 5.712 9.935 495 75" xml:space="preserve">
<path fill="#F5DB7A" d="M16.506,54.175c-2.423,0.486-4.756,1.049-6.862,1.84c0.788-0.295,5.442-8.169,6.493-9.604
	c2.405-3.29,4.475-7.616,7.032-10.733c8.267-10.076,17.171-11.334,26.644-14.974c17.629-6.775,37.152,5.712,54.84,15.659
	c8.828,4.965,17.479,11.718,26.191,17.806c16.379,11.449,35.227,4.59,49.746-7.353c15.518-12.766,30.275-31.821,47.703-34.795
	c17.918-3.058,36.702,10.643,54.21,22.201c7.158,4.726,14.141,11.53,21.42,14.569c18.459,7.711,32.908,3.844,49.451-8.593
	c14.602-10.979,29.08-13.696,45.049-4.157c13.459,8.04,27.365,11.621,40.889,10.595c10.832-0.823,21.197-6.013,31.223-12.557
	c8.545-5.575,16.969-18.203,26.246-18.898c-7.145,7.057-12.375,20.234-19.006,28.899c-6.748,8.822-14.35,17.283-22.217,22.051
	c-16.18,9.81-33.789,7.736-50.074-10.021c-9.969-10.869-23.982-14.369-34.104-9.704c-12.871,5.929-23.996,19.521-35.932,29.597
	c-32.164,27.158-65.024-30.605-98.224-28.2c-13.553,0.981-28.533,6.508-40.998,15.372c-15.567,11.072-31.267,19.173-48.729,16.941
	c-24.161-3.088-47.355-30.468-71.211-35.343c-15.079-3.081-31.64,1.701-46.225,6.461C25.814,52.623,21.006,53.27,16.506,54.175z"/>
</svg>
