<?xml version="1.0" encoding="utf-8"?>
<!-- Generator: Adobe Illustrator 16.0.0, SVG Export Plug-In . SVG Version: 6.00 Build 0)  -->
<!DOCTYPE svg PUBLIC "-//W3C//DTD SVG 1.1//EN" "http://www.w3.org/Graphics/SVG/1.1/DTD/svg11.dtd">
<svg version="1.1" id="Layer_1" xmlns="http://www.w3.org/2000/svg" xmlns:xlink="http://www.w3.org/1999/xlink" x="0px" y="0px"
	 width="280px" height="100px" viewBox="15.714 6.006 280 100" enable-background="new 15.714 6.006 280 100" xml:space="preserve">
<path fill="#F5DB7A" d="M18.684,27.179c17.883,3.165,36.863,4.94,53.636,12.382c17.99,7.982,25.535,24.519,40.756,36.417
	c31.188,24.382,52.099-2.749,82.507-11.37c38.298-10.854,64.466,17.161,97.162,38.737c-8.346-23.68-21.641-44.952-36.956-59.311
	c-17.479-16.388-40.392-22.275-62.099-7.38c-15.982,10.967-38.527,22.648-58.235,15.18c-24.521-9.292-29.473-36.571-57.487-41.593
	C60.662,7.139,26.489,6.744,18.684,27.179z"/>
</svg>
