<?xml version="1.0" encoding="utf-8"?>
<!-- Generator: Adobe Illustrator 16.0.0, SVG Export Plug-In . SVG Version: 6.00 Build 0)  -->
<!DOCTYPE svg PUBLIC "-//W3C//DTD SVG 1.1//EN" "http://www.w3.org/Graphics/SVG/1.1/DTD/svg11.dtd">
<svg version="1.1" id="Layer_1" xmlns="http://www.w3.org/2000/svg" xmlns:xlink="http://www.w3.org/1999/xlink" x="0px" y="0px"
	 width="238.534px" height="266.718px" viewBox="0 0 238.534 266.718" enable-background="new 0 0 238.534 266.718"
	 xml:space="preserve">
<path fill="#EBA823" d="M99.48,0.225C90.146,1.063,46,7.283,28.609,44.989c0,0,33.476-18.492,49.996,16.869
	c11.175,23.921,43.589,33.572,65.469,17.717c23.02-16.684,21.522-47.48,2.504-65.913C134.169,1.637,115.91-0.847,99.48,0.225z"/>
<path fill="#EBA823" d="M29.783,17.07c1.048,7.338-5.177,18.734-8.376,24.817c-1.836-4.224-4.615-9.646-8.235-12.702
	c-2.308-1.944-5.542-2.252-7.994-4.383C0.502,20.74-1.421,13.792,1.144,8.052C4.969-0.509,15.012-2.114,22.251,2.777
	C26.974,5.968,29.014,11.691,29.783,17.07z"/>
<path fill="#EBA823" d="M175.845,93.962c-7.399,0.399-18.207-6.8-23.983-10.519c4.084,2.619,13.193-7.476,15.34-10.137
	c5.032-6.244,11.45-11.922,20.14-7.083c8.192,4.562,8.909,14.707,3.403,21.488C187.151,92.138,181.272,93.668,175.845,93.962z"/>
<path fill="#EBA823" d="M82.779,82.102c-1.24-0.896-2.484-1.83-3.718-2.829c-10.287-8.339-20.857-16.358-30.376-25.595
	c6.737,12.511-8.929,47.596-8.941,47.644c-2.89,7.323-3.212,15.691-0.284,23.663c6.333,17.236,25.439,26.076,42.678,19.743
	c17.236-6.333,26.076-25.44,19.743-42.677C98.152,91.905,90.541,87.713,82.779,82.102z"/>
<path fill="#EBA823" d="M207.445,163.215c-1.038,0.12-2.096,0.224-3.178,0.289c-9.028,0.537-17.671,2.137-26.943,0.109
	c7.153,8.424,17.269,29.094,17.285,29.125c1.918,5.021,5.613,9.39,10.763,12.06c11.136,5.771,24.842,1.421,30.61-9.719
	c5.772-11.134,1.421-24.841-9.714-30.609C219.71,161.073,213.944,162.469,207.445,163.215z"/>
<path fill="#EBA823" d="M150.04,164.417c-0.778-0.905-1.554-1.84-2.308-2.822c-6.293-8.202-21.416-18.262-26.962-27.005
	c3.392,22.619-6.877,36.559-6.895,36.592c-3.526,5.034-5.293,11.327-4.521,17.912c1.674,14.236,14.57,24.422,28.81,22.75
	c14.234-1.674,24.422-14.571,22.748-28.807C159.926,174.655,154.912,170.088,150.04,164.417z"/>
<path fill="#EBA823" d="M125.939,228.281c-0.578-0.504-1.156-1.028-1.727-1.582c-4.754-4.632-15.29-9.632-19.621-14.675
	c4.238,14.061-1.001,23.865-1.012,23.889c-1.774,3.523-2.317,7.686-1.22,11.8c2.376,8.891,11.51,14.175,20.404,11.801
	c8.893-2.374,14.178-11.511,11.802-20.403C133.167,233.875,129.558,231.434,125.939,228.281z"/>
<path fill="#EBA823" d="M159.758,106.546l0.001-0.003c-13.247-0.531-30.755,3.461-30.755,3.461
	c11.979,8.953,14.801,19.213,14.801,19.213l0.015-0.02c0.669,3.333,1.995,6.704,4.048,9.865c7.096,10.931,15.368,15.74,28.621,9.552
	c11.578-5.406,12.772-19.56,5.676-30.491C177.262,110.573,166.88,106.664,159.758,106.546z"/>
<path fill="#EBA823" d="M195.203,225.946l0.004-0.001c-7.547-10.9-21.272-22.481-21.272-22.481
	c0.06,14.955-6.438,23.382-6.438,23.382l0.023,0.001c-2.259,2.54-4.152,5.626-5.443,9.169c-4.46,12.244-3.324,21.745,9.595,28.606
	c11.283,5.995,23.308-1.568,27.769-13.814C202.52,242.348,199.396,231.703,195.203,225.946z"/>
<path fill="#EBA823" d="M64.316,175.708C74.499,169.291,93.4,157.86,93.4,157.86c-5.135,8.608-0.35,32.43-0.35,32.43l-0.368-0.108
	c0.87,6.184-0.702,13.129-4.881,19.175c-7.884,11.415-22.053,15.292-31.647,8.661c-9.594-6.628-10.98-21.252-3.097-32.664
	C56.086,180.969,60.045,177.701,64.316,175.708z"/>
</svg>
