<?xml version="1.0" encoding="utf-8"?>
<!-- Generator: Adobe Illustrator 16.0.0, SVG Export Plug-In . SVG Version: 6.00 Build 0)  -->
<!DOCTYPE svg PUBLIC "-//W3C//DTD SVG 1.1//EN" "http://www.w3.org/Graphics/SVG/1.1/DTD/svg11.dtd">
<svg version="1.1" id="Layer_1" xmlns="http://www.w3.org/2000/svg" xmlns:xlink="http://www.w3.org/1999/xlink" x="0px" y="0px"
	 width="1034.886px" height="1109.58px" viewBox="0 0 1034.886 1109.58" enable-background="new 0 0 1034.886 1109.58"
	 xml:space="preserve">
<path fill="#FEE3D3" d="M644.363,433.648c1.3-9.831-5.574-18.857-15.351-20.164c-9.777-1.306-18.755,5.603-20.056,15.432
	c-1.298,9.829,5.572,18.858,15.351,20.165C634.083,450.387,643.065,443.476,644.363,433.648z"/>
<path fill="#2A4087" d="M524.993,557.396C594.914,525.249,611,434.871,611,434.871l29.38,2.848
	c-16.874,119.24-111.3,158.817-135.617,163.849L524.993,557.396z"/>
<polygon fill="#3551A3" points="524.555,553.885 414.13,555.011 372.78,727.256 565.347,725.293 "/>
<path fill="#3551A3" d="M414.69,561.964"/>
<path fill="#FEE3D3" d="M404.776,720.839c0,7.705-6.213,13.951-13.876,13.951c-7.662,0-13.873-6.246-13.873-13.951
	c0-7.703,6.211-13.949,13.873-13.949C398.563,706.89,404.776,713.136,404.776,720.839z"/>
<path fill="#2A4087" d="M406.415,589.376c-57.481,41.373-2.059,121.843-2.059,121.843l-28.689,4.12
	c-43.759-85.058-31.025-106.404,41.662-161.454L406.415,589.376z"/>
<path fill="#FEE3D3" d="M565.708,479.247c0,52.857-42.621,95.707-95.203,95.707c-52.577,0-95.201-42.85-95.201-95.707
	c0-52.857,42.625-95.708,95.201-95.708C523.087,383.539,565.708,426.389,565.708,479.247z"/>
<path d="M449.782,477.125c0.465,9.408-4.274,17.289-10.583,17.604c-6.311,0.316-11.803-7.056-12.268-16.464
	c-0.466-9.41,4.273-17.291,10.585-17.605C443.826,460.345,449.317,467.716,449.782,477.125z"/>
<path d="M511.199,477.125c0.465,9.408-4.271,17.291-10.585,17.604c-6.31,0.316-11.801-7.056-12.267-16.463
	c-0.466-9.409,4.275-17.292,10.584-17.606C505.242,460.343,510.734,467.717,511.199,477.125z"/>
<path fill="#FFFFFF" d="M507.625,472.213c0.152,3.066-1.393,5.634-3.448,5.736c-2.054,0.103-3.847-2.298-3.998-5.364
	c-0.15-3.065,1.392-5.634,3.449-5.736C505.685,466.746,507.474,469.148,507.625,472.213z"/>
<path fill="#FFFFFF" d="M445.811,472.213c0.151,3.065-1.391,5.632-3.448,5.736c-2.057,0.102-3.844-2.3-3.997-5.364
	c-0.152-3.067,1.39-5.635,3.451-5.736C443.87,466.744,445.66,469.147,445.811,472.213z"/>
<path fill="#7A4A1C" d="M450.925,530.792c0,0,26.115,22.01,42.354,1.355C493.279,532.147,469.414,573.138,450.925,530.792z"/>
<g>
	<path fill="#01A9B6" d="M658.434,442.051c2.382-0.987,4.549-2.572,6.263-4.738c3.383-4.281,4.184-9.785,2.628-14.622
		c3.866-3.282,6.082-8.377,5.464-13.809c-0.62-5.43-3.925-9.893-8.429-12.208c0.427-5.066-1.591-10.246-5.849-13.649
		c-4.259-3.398-9.732-4.203-14.545-2.639c-3.262-3.888-8.331-6.116-13.735-5.492c-5.402,0.621-9.841,3.944-12.141,8.473
		c-5.043-0.431-10.194,1.595-13.577,5.876c-3.383,4.283-4.184,9.786-2.629,14.622c-3.867,3.279-6.081,8.378-5.463,13.809
		c0.619,5.431,3.922,9.891,8.427,12.208c-0.424,5.066,1.592,10.246,5.849,13.647c2.894,2.311,6.347,3.394,9.773,3.379l-8.482,44.818
		l10.995-11.944l5.863,15.173l8.177-43.191c0.644,0.008,1.297-0.025,1.955-0.102c1.56-0.178,3.036-0.589,4.404-1.183l26.869,39.707
		l-0.629-16.265l14.82,6.563L658.434,442.051z"/>
	<path fill="#FFCF01" d="M656.685,410.735c1.396,12.258-7.357,23.336-19.55,24.741c-12.197,1.403-23.215-7.396-24.613-19.656
		c-1.396-12.256,7.357-23.336,19.553-24.741C644.271,389.675,655.29,398.478,656.685,410.735z"/>
	<g>
		<path fill="#C68A11" d="M640.382,426.511l-5.564,0.919l-3.45-21.085c-1.722,2.249-3.888,4.059-6.497,5.431l-0.832-5.079
			c1.376-0.716,2.805-1.884,4.291-3.5c1.485-1.616,2.396-3.365,2.741-5.249l4.517-0.747L640.382,426.511z"/>
	</g>
</g>
<g>
	<path fill="#FEE3D3" d="M449.786,477.125c-0.464-9.409-5.956-16.78-12.266-16.466c-6.242,0.311-10.937,8.024-10.59,17.292h22.87
		C449.794,477.676,449.8,477.403,449.786,477.125z"/>
</g>
<path fill="#FEE3D3" d="M426.919,477.925c0.003,0.105,0,0.208,0.005,0.313c0.464,9.408,5.957,16.781,12.268,16.465
	c6.124-0.305,10.751-7.742,10.597-16.778H426.919z"/>
<g>
	<path fill="#FEE3D3" d="M511.203,477.125c-0.465-9.409-5.955-16.78-12.267-16.466c-6.242,0.311-10.937,8.024-10.59,17.292h22.87
		C511.21,477.676,511.216,477.403,511.203,477.125z"/>
</g>
<path fill="#FEE3D3" d="M488.335,477.925c0.004,0.105,0,0.208,0.005,0.313c0.465,9.408,5.957,16.781,12.268,16.465
	c6.124-0.305,10.752-7.742,10.597-16.778H488.335z"/>
<path fill="#9C6926" d="M443.257,410.469c0,0-1.135,47-33.589,53.826c0,0,5.142-15.471-3.202-29.867c0,0-4.506,26.006-31.973,31.622
	c0,0,0.977-82.565,90.724-82.705c0,0,84.498-13.661,98.417,73.221C563.635,456.566,497.902,468.472,443.257,410.469z"/>
<path fill="none" stroke="#FABA9A" stroke-width="2" stroke-miterlimit="10" d="M458.153,503.2c0,0,10.979,12.613,25.826-1.289"/>
</svg>
