<?xml version="1.0" encoding="utf-8"?>
<!-- Generator: Adobe Illustrator 16.0.0, SVG Export Plug-In . SVG Version: 6.00 Build 0)  -->
<!DOCTYPE svg PUBLIC "-//W3C//DTD SVG 1.1//EN" "http://www.w3.org/Graphics/SVG/1.1/DTD/svg11.dtd">
<svg version="1.1" id="Layer_1" xmlns="http://www.w3.org/2000/svg" xmlns:xlink="http://www.w3.org/1999/xlink" x="0px" y="0px"
	 width="409.361px" height="936.76px" viewBox="0 0 409.361 936.76" enable-background="new 0 0 409.361 936.76"
	 xml:space="preserve">
<g>
	<path fill="#F0CB17" d="M273.471,104.053c-19.901-2.457-62.186,0.919-62.186,0.919c-0.854-18.22-7.506-31.46-7.506-31.46
		c-17.417-3.288-34.823,0.053-34.823,0.053c4.97-4.151,8.273-10.779,8.273-10.779c-3.315-0.823-23.216-1.623-23.216-1.623
		c7.025-17.345,0.564-37.854-4.743-49.971c-39.333,16.54-59.142,51.241-55.621,85.188c2.366,22.834,12.164,33.151,22.077,52.902
		c9.467,18.859,23.543,35.303,20.263,59.6c0,0-1.069,23.743,5.021,31.468c0,0,64.349,48.202,122.71-0.181
		c4.519-3.745,4.857-34.51,4.932-31.48c-0.889-37.542,25.559-59.216,30.57-72.374c6.643-12.191,9.373-29.883,9.883-44.736
		c0.164-4.729-0.178-9.429-0.971-14.054C285.38,86.478,273.471,104.053,273.471,104.053z"/>
</g>
<path fill="#A0709F" d="M334.174,303.811c0,24.223-66.732,43.859-131.722,43.859S71.9,328.033,71.9,303.811
	s65.563-43.856,130.552-43.856S334.174,279.588,334.174,303.811z"/>
<path fill="#F0CB17" d="M299.547,136.684c6.732-12.316,9.521-30.194,10.057-45.207c1.677-46.882-44.697-90.973-106.628-91.471
	C127.436-0.602,86.94,48.408,91.804,96.013c2.357,23.085,12.248,33.527,22.24,53.508c9.541,19.076,23.747,35.719,20.394,60.275
	c0,0-1.118,23.998,5.03,31.813c0,0,64.974,48.824,124.041,0c4.57-3.779,4.959-34.877,5.029-31.813
	C267.697,171.846,294.461,149.974,299.547,136.684z"/>
<path fill="#F4EB3E" d="M219.684,262.259h-8.383v-76.912c0-5.422-0.138-11.029-0.271-16.451c-0.139-5.563-0.279-11.218-0.276-16.886
	c-0.248,0.008-0.494,0.014-0.732,0.021l-0.116,0.003l-19.428-0.003c-0.238-0.007-0.483-0.013-0.731-0.021
	c0,5.668-0.141,11.322-0.276,16.886c-0.135,5.422-0.274,11.029-0.274,16.451v76.912h-8.381v-76.912
	c0-5.523,0.14-11.186,0.274-16.659c0.14-5.577,0.28-11.251,0.274-16.906c-11.893-0.532-27.052-2.646-32.765-13.902
	c-2.854-5.621-2.334-11.353,1.425-15.727c5.23-6.088,15.935-8.464,24.901-5.524c8.382,2.747,13.58,9.486,14.26,18.488
	c0.214,2.824,0.354,5.666,0.441,8.519c0.349,0.008,0.691,0.017,1.024,0.025h19.197c0.336-0.009,0.675-0.018,1.023-0.025
	c0.089-2.853,0.23-5.694,0.442-8.519c0.681-9.002,5.878-15.741,14.26-18.488c8.963-2.939,19.671-0.563,24.901,5.524
	c3.759,4.374,4.277,10.105,1.426,15.727c-5.713,11.256-20.873,13.37-32.765,13.902c-0.005,5.655,0.134,11.329,0.272,16.906
	c0.136,5.474,0.276,11.136,0.276,16.659V262.259z M166.917,123.761c-4.257,0-8.441,1.409-10.534,3.844
	c-0.972,1.132-2.062,3.037-0.31,6.489c3.644,7.175,15.376,8.822,25.158,9.299c-0.083-2.568-0.214-5.123-0.406-7.647
	c-0.537-7.098-4.924-9.987-8.511-11.162C170.611,124.024,168.758,123.761,166.917,123.761z M233.579,123.761
	c-1.839,0-3.69,0.264-5.395,0.822c-3.589,1.175-7.978,4.064-8.513,11.162c-0.191,2.524-0.321,5.079-0.408,7.647
	c9.785-0.477,21.517-2.124,25.161-9.299c1.752-3.452,0.662-5.357-0.31-6.489C242.022,125.17,237.837,123.761,233.579,123.761z"/>
<g>
	<path fill="#A09E9F" d="M141.023,312.753c21.793,26.79,107.946,23.442,128.06-2.509c13.573-44.443-5.098-68.635-5.098-68.635
		c-62.12,30.04-124.041,0-124.041,0S126.93,281.005,141.023,312.753z"/>
</g>
<g>
	<path fill="#803E7E" d="M72.756,310.706c-0.54-0.681-0.856-1.048-0.856-1.048S72.16,310.033,72.756,310.706z"/>
	<path fill="#803E7E" d="M333.047,416.76c-13.467-17.21-24.631-24.647-24.631-24.647c-2.342-36.257,25.327-84.055,25.327-84.055
		c-38.639,38.011-131.291,39.612-131.291,39.612c-96.641-5.219-124.759-31.387-129.696-36.964
		c4.567,5.757,26.198,35.388,27.244,81.406c0,0-3.428,3.175-8.716,8.944C36.257,453.457,0,542.894,0,644.436
		C0,805.882,91.639,936.76,204.681,936.76s204.681-130.878,204.681-292.324C409.361,552.417,379.582,470.345,333.047,416.76z"/>
</g>
</svg>
