<?xml version="1.0" encoding="utf-8"?>
<!-- Generator: Adobe Illustrator 16.0.0, SVG Export Plug-In . SVG Version: 6.00 Build 0)  -->
<!DOCTYPE svg PUBLIC "-//W3C//DTD SVG 1.1//EN" "http://www.w3.org/Graphics/SVG/1.1/DTD/svg11.dtd">
<svg version="1.1" id="Layer_1" xmlns="http://www.w3.org/2000/svg" xmlns:xlink="http://www.w3.org/1999/xlink" x="0px" y="0px"
	 width="180px" height="224px" viewBox="0 0 180 224" enable-background="new 0 0 180 224" xml:space="preserve">
<circle fill="#FEE3D3" cx="121.227" cy="56.61" r="17.314"/>
<path fill="#2A4087" d="M22.658,178.234c67.791-31.002,83.385-118.163,83.385-118.163l28.486,2.746
	C118.168,177.814,26.623,215.983,3.047,220.835L22.658,178.234z"/>
<g>
	<path fill="#01A9B6" d="M152.034,66.995c2.307-0.952,4.408-2.48,6.069-4.57c3.28-4.128,4.056-9.436,2.547-14.102
		c3.748-3.165,5.897-8.08,5.298-13.317c-0.601-5.237-3.806-9.541-8.171-11.773c0.413-4.886-1.542-9.881-5.671-13.163
		c-4.128-3.278-9.436-4.054-14.102-2.546c-3.163-3.749-8.077-5.898-13.316-5.296c-5.237,0.6-9.539,3.804-11.771,8.172
		c-4.888-0.416-9.883,1.539-13.162,5.667c-3.28,4.13-4.057,9.438-2.548,14.102c-3.748,3.163-5.897,8.081-5.296,13.317
		c0.599,5.237,3.803,9.539,8.17,11.773c-0.413,4.886,1.542,9.881,5.669,13.161c2.806,2.228,6.154,3.273,9.477,3.259l-8.226,43.223
		l10.661-11.52l5.685,14.633l7.927-41.653c0.625,0.008,1.259-0.024,1.896-0.098c1.511-0.172,2.942-0.569,4.27-1.141l26.05,38.295
		l-0.609-15.687l14.368,6.329L152.034,66.995z"/>
	<path fill="#FFCF01" d="M150.337,36.793c1.354,11.822-7.134,22.505-18.956,23.86c-11.823,1.354-22.506-7.133-23.86-18.957
		c-1.354-11.82,7.132-22.505,18.957-23.86C138.3,16.483,148.982,24.973,150.337,36.793z"/>
	<g>
		<path fill="#C68A11" d="M134.53,52.008l-5.396,0.887l-3.344-20.334c-1.671,2.168-3.77,3.913-6.3,5.236l-0.806-4.897
			c1.333-0.691,2.719-1.817,4.16-3.375c1.439-1.559,2.323-3.246,2.658-5.062l4.378-0.72L134.53,52.008z"/>
	</g>
</g>
</svg>
