<?xml version="1.0" encoding="utf-8"?>
<!-- Generator: Adobe Illustrator 16.0.0, SVG Export Plug-In . SVG Version: 6.00 Build 0)  -->
<!DOCTYPE svg PUBLIC "-//W3C//DTD SVG 1.1//EN" "http://www.w3.org/Graphics/SVG/1.1/DTD/svg11.dtd">
<svg version="1.1" id="Layer_1" xmlns="http://www.w3.org/2000/svg" xmlns:xlink="http://www.w3.org/1999/xlink" x="0px" y="0px"
	 width="626.996px" height="445px" viewBox="0 0 626.996 445" enable-background="new 0 0 626.996 445" xml:space="preserve">
<path fill="#976B38" d="M307.41,286.393c1.553,2.926,5.186,4.043,8.115,2.491L505.57,188.291
	c5.715,6.835,23.865,12.018,34.623,5.358l73.268-45.344c12.378-7.66,16.195-23.897,8.529-36.267
	c-7.669-12.369-23.921-16.184-36.3-8.521l-73.265,45.344c-7.803,4.829-9.158,17.977-9.093,27.04l-193.43,102.384
	C306.975,279.836,305.859,283.466,307.41,286.393z"/>
<polygon fill="#28B34B" points="359.032,152.855 288.974,153.566 262.738,262.179 384.915,260.941 "/>
<path fill="#28B34B" d="M363.05,173.152c32.094,20.149,34.114,65.087,34.114,65.087l14.542,0.521
	c-0.544-59.005-44.13-84.352-55.687-88.374L363.05,173.152z"/>
<path fill="#3551A3" d="M289.328,157.951"/>
<path fill="#28B34B" d="M284.078,175.235c-36.47,26.088-1.307,76.832-1.307,76.832l-18.2,2.598
	c-27.764-53.636-19.685-67.097,26.43-101.809L284.078,175.235z"/>
<ellipse fill="#FEE3D3" cx="324.74" cy="105.791" rx="60.401" ry="60.349"/>
<path fill="none" stroke="#FED3A8" stroke-miterlimit="10" d="M316.903,120.895c0,0,6.967,7.955,16.385-0.812"/>
<ellipse transform="matrix(-0.0495 -0.9988 0.9988 -0.0495 216.7241 411.8843)" cx="304.349" cy="102.818" rx="10.755" ry="7.258"/>
<ellipse transform="matrix(-0.0496 -0.9988 0.9988 -0.0496 257.6136 450.8788)" cx="343.323" cy="102.874" rx="10.754" ry="7.259"/>
<path fill="#FFFFFF" d="M348.292,98.942c0.096,1.937-0.885,3.556-2.188,3.62c-1.304,0.065-2.438-1.449-2.536-3.384
	c-0.096-1.933,0.885-3.554,2.188-3.617C347.062,95.498,348.194,97.012,348.292,98.942z"/>
<ellipse transform="matrix(-0.0493 -0.9988 0.9988 -0.0493 222.9155 410.2828)" fill="#FFFFFF" cx="306.721" cy="99.051" rx="3.505" ry="2.364"/>
<path fill="#7A4A1C" d="M312.317,138.293c0,0,16.568,13.879,26.872,0.855C339.19,139.148,324.048,164.995,312.317,138.293z"/>
<ellipse fill="#FEE3D3" cx="228.89" cy="211.585" rx="9.357" ry="9.349"/>
<polygon fill="#3551A3" points="181.119,115.322 106.655,116.077 78.771,231.52 208.627,230.202 "/>
<path fill="#2A4087" d="M185.388,136.896c34.109,21.414,36.26,69.179,36.26,69.179l15.456,0.555
	c-0.578-62.716-46.903-89.657-59.188-93.931L185.388,136.896z"/>
<path fill="#C7892F" d="M291.163,443.236c140.628,0,140.628-209.049,140.628-209.049c-90.895-10.279-140.628-62.252-140.628-62.252
	V443.236L291.163,443.236z"/>
<path fill="#AB7135" d="M291.163,171.936c0,0-56.594,95.727-279.929,19.417c0,0-33.915,107.95,15.82,161.068
	c0,0,70.316,95.968,264.109,91.957V171.936L291.163,171.936z"/>
<path fill="#3551A3" d="M107.033,120.736"/>
<ellipse fill="#FEE3D3" cx="144.671" cy="65.298" rx="64.2" ry="64.144"/>
<path fill="none" stroke="#FED3A8" stroke-miterlimit="10" d="M136.341,81.353c0,0,7.405,8.455,17.415-0.864"/>
<ellipse transform="matrix(-0.0495 -0.9988 0.9988 -0.0495 66.896 188.1869)" cx="122.993" cy="62.262" rx="11.43" ry="7.715"/>
<ellipse transform="matrix(-0.0496 -0.9988 0.9988 -0.0496 110.433 229.5031)" cx="164.411" cy="62.209" rx="11.43" ry="7.715"/>
<ellipse transform="matrix(-0.0497 -0.9988 0.9988 -0.0497 117.4229 228.0321)" fill="#FFFFFF" cx="167.196" cy="58.153" rx="3.724" ry="2.514"/>
<ellipse transform="matrix(-0.0496 -0.9988 0.9988 -0.0496 73.6567 186.3929)" fill="#FFFFFF" cx="125.509" cy="58.153" rx="3.724" ry="2.513"/>
<path fill="#7A4A1C" d="M131.467,99.846c0,0,17.611,14.749,28.562,0.908C160.028,100.754,143.935,128.226,131.467,99.846z"/>
<g>
	<path fill="#FEE3D3" d="M171.893,60.821c-0.312-6.304-4.018-11.247-8.272-11.035c-4.167,0.207-7.312,5.282-7.144,11.417h15.422
		C171.895,61.075,171.9,60.949,171.893,60.821z"/>
</g>
<path fill="#FEE3D3" d="M155.979,61.202c0.003,0.137-0.001,0.271,0.006,0.409c0.333,6.708,4.274,11.963,8.8,11.736
	c4.436-0.217,7.778-5.619,7.599-12.146H155.979z"/>
<g>
	<path fill="#FEE3D3" d="M130.695,60.821c-0.312-6.304-4.018-11.247-8.272-11.035c-4.167,0.207-7.312,5.282-7.144,11.417h15.422
		C130.697,61.075,130.702,60.949,130.695,60.821z"/>
</g>
<path fill="#FEE3D3" d="M114.258,61.202c0.004,0.146-0.001,0.289,0.007,0.436c0.354,7.134,4.546,12.723,9.359,12.482
	c4.718-0.231,8.273-5.977,8.083-12.918H114.258z"/>
<path fill="#9C6926" d="M126.295,19.203c0,0-0.763,31.5-22.65,36.075c0,0,3.468-10.369-2.158-20.017c0,0-3.04,17.429-21.561,21.192
	c0,0,0.659-55.335,61.179-55.43c0,0,56.98-9.156,66.366,49.073C207.472,50.097,163.146,58.078,126.295,19.203z"/>
<g>
	<path fill="#FEE3D3" d="M311.593,102.52c-0.296-5.932-3.78-10.581-7.783-10.383c-3.921,0.194-6.879,4.971-6.723,10.741h14.512
		C311.595,102.758,311.599,102.641,311.593,102.52z"/>
</g>
<path fill="#FEE3D3" d="M297.087,102.878c0.004,0.121,0,0.239,0.006,0.361c0.296,5.933,3.781,10.58,7.784,10.381
	c3.923-0.193,6.88-4.971,6.722-10.742H297.087z"/>
<g>
	<path fill="#FEE3D3" d="M350.56,102.52c-0.296-5.932-3.779-10.581-7.782-10.383c-3.921,0.194-6.879,4.971-6.724,10.741h14.513
		C350.562,102.758,350.565,102.641,350.56,102.52z"/>
</g>
<path fill="#FEE3D3" d="M336.054,102.878c0.004,0.121,0,0.239,0.006,0.361c0.296,5.933,3.781,10.58,7.784,10.381
	c3.923-0.193,6.88-4.971,6.723-10.742H336.054z"/>
<path fill="#5E3D15" d="M333.822,44.627c-5.508-0.004,0.536-8.132,0.536-8.132c-3.768,0.903-5.73,3.782-7.573,5.125
	c-2.77-2.021-7.869-5.813-12.541-3.843c0,0,6.309,1.976,6.066,7.408c-57.458,1.296-56.987,53.851-56.987,53.851
	s0.889-5.212,22.287-13.755c0,0,4.221-2.904,2.001-10.847c0,0,8.124,7.777,8.504,11.972c0,0,1.947-2.558,6.754-2.341
	c0,0-0.501-9.817-8.163-17.625c0,0,17.506,3.693,21.744,16.666c0,0,24.741-3.392,36.815-2.596
	c19.196,1.268,31.062,9.969,31.062,9.969C377.501,53.097,350.493,45.591,333.822,44.627z"/>
</svg>
