<?xml version="1.0" encoding="utf-8"?>
<!-- Generator: Adobe Illustrator 16.0.0, SVG Export Plug-In . SVG Version: 6.00 Build 0)  -->
<!DOCTYPE svg PUBLIC "-//W3C//DTD SVG 1.1//EN" "http://www.w3.org/Graphics/SVG/1.1/DTD/svg11.dtd">
<svg version="1.1" id="Layer_1" xmlns="http://www.w3.org/2000/svg" xmlns:xlink="http://www.w3.org/1999/xlink" x="0px" y="0px"
	 width="346.667px" height="196.075px" viewBox="0 0 346.667 196.075" enable-background="new 0 0 346.667 196.075"
	 xml:space="preserve">
<path fill="#FFFFFF" d="M343.266,79.122c0-16.653-13.5-30.153-30.154-30.153c-1.254,0-2.488,0.085-3.703,0.234
	c-5.039-23.401-25.84-40.944-50.75-40.944c-7.184,0-14.025,1.46-20.248,4.098c-8.766-6.762-19.746-10.793-31.674-10.793
	c-11.334,0-21.811,3.643-30.35,9.806c-8.459-5.977-18.775-9.5-29.92-9.5c-15.005,0-28.516,6.372-37.994,16.549
	c-6.306-2.722-13.253-4.236-20.557-4.236c-21.598,0-40.11,13.188-47.936,31.95c-1.953-0.392-3.97-0.599-6.036-0.599
	c-16.868,0-30.543,13.674-30.543,30.542c0,11.646,6.519,21.767,16.104,26.919c-0.523,2.959-0.802,6.002-0.802,9.111
	c0,28.676,23.246,51.922,51.922,51.922c7.506,0,14.632-1.605,21.074-4.471c9.198,14.56,25.423,24.236,43.917,24.236
	c11.172,0,21.51-3.539,29.981-9.542c9.494,12.317,24.385,20.261,41.139,20.261c23.078,0,42.629-15.061,49.387-35.887
	c4.258,1.129,8.725,1.738,13.338,1.738c28.676,0,51.924-23.248,51.924-51.924c0-0.107-0.008-0.213-0.008-0.32
	C334.01,104.525,343.266,92.908,343.266,79.122z"/>
</svg>
