<?xml version="1.0" encoding="utf-8"?>
<!-- Generator: Adobe Illustrator 16.0.0, SVG Export Plug-In . SVG Version: 6.00 Build 0)  -->
<!DOCTYPE svg PUBLIC "-//W3C//DTD SVG 1.1//EN" "http://www.w3.org/Graphics/SVG/1.1/DTD/svg11.dtd">
<svg version="1.1" id="Layer_1" xmlns="http://www.w3.org/2000/svg" xmlns:xlink="http://www.w3.org/1999/xlink" x="0px" y="0px"
	 width="189.385px" height="300.302px" viewBox="0 0 189.385 300.302" enable-background="new 0 0 189.385 300.302"
	 xml:space="preserve">
<g>
	<path fill="#3551A3" d="M154.714,3.415"/>
	<path fill="#976B38" d="M185.743,34.329c-2.391-1.641-5.659-1.034-7.3,1.356L71.971,190.747
		c-7.202-2.985-23.371,0.353-29.007,9.878l-38.383,64.87c-6.485,10.96-2.858,25.104,8.103,31.589
		c10.96,6.486,25.103,2.857,31.588-8.104l38.384-64.869c4.088-6.909-0.197-17.656-3.924-24.66l108.37-157.822
		C188.741,39.238,188.132,35.971,185.743,34.329z"/>
	<circle fill="#FEE3D3" cx="139.073" cy="92.949" r="8.184"/>
	<path fill="#2A4087" d="M150.224,17.822c-37.687,25.854-3.217,71.482-3.217,71.482l-16.918,2.417
		C104.28,41.82,115.212,24.926,154.659,0L150.224,17.822z"/>
</g>
</svg>
