<?xml version="1.0" encoding="utf-8"?>
<!-- Generator: Adobe Illustrator 16.0.0, SVG Export Plug-In . SVG Version: 6.00 Build 0)  -->
<!DOCTYPE svg PUBLIC "-//W3C//DTD SVG 1.1//EN" "http://www.w3.org/Graphics/SVG/1.1/DTD/svg11.dtd">
<svg version="1.1" id="Layer_1" xmlns="http://www.w3.org/2000/svg" xmlns:xlink="http://www.w3.org/1999/xlink" x="0px" y="0px"
	 width="760.893px" height="1042.016px" viewBox="0 0 760.893 1042.016" enable-background="new 0 0 760.893 1042.016"
	 xml:space="preserve">
<path fill="#FEE3D3" d="M753.592,943.858c0,19.595-15.895,35.488-35.493,35.488c-19.604,0-35.49-15.895-35.49-35.488
	c0-19.604,15.888-35.498,35.49-35.498C737.697,908.36,753.592,924.254,753.592,943.858z"/>
<polygon fill="#28B34B" points="510.589,537.253 187.398,540.532 66.374,1042.016 629.983,1036.301 "/>
<path fill="#00AE4D" d="M529.123,630.968C677.165,723.995,686.494,931.48,686.494,931.48l67.083,2.412
	c-2.509-272.438-203.571-389.47-256.885-408.039L529.123,630.968z"/>
<path fill="#3551A3" d="M189.035,560.779"/>
<path fill="#00AE4D" d="M164.818,640.583c-168.24,120.449-6.025,354.738-6.025,354.738l-83.963,11.997
	C-53.247,759.675-15.982,697.523,196.751,537.253L164.818,640.583z"/>
<path fill="#FEE3D3" d="M631.035,319.946c0,153.896-124.741,278.645-278.634,278.645S73.753,473.842,73.753,319.946
	c0-153.891,124.757-278.646,278.648-278.646C506.294,41.301,631.035,166.055,631.035,319.946z"/>
<path fill="none" stroke="#FED3A8" stroke-miterlimit="10" d="M316.244,389.686c0,0,32.139,36.726,75.582-3.751"/>
<path d="M291.737,304.843c1.371,27.387-12.506,50.335-30.976,51.256c-18.471,0.915-34.546-20.542-35.902-47.94
	c-1.369-27.393,12.5-50.335,30.979-51.256C274.311,255.994,290.38,277.45,291.737,304.843z"/>
<path d="M471.497,304.843c1.366,27.395-12.499,50.342-30.976,51.256c-18.47,0.921-34.545-20.542-35.91-47.934
	c-1.357-27.394,12.521-50.341,30.983-51.263C454.059,255.988,470.135,277.45,471.497,304.843z"/>
<path fill="#FFFFFF" d="M461.04,288.335c0.442,8.927-4.077,16.411-10.097,16.705c-6.014,0.301-11.256-6.691-11.704-15.618
	c-0.437-8.926,4.086-16.403,10.096-16.698C455.357,272.422,460.594,279.415,461.04,288.335z"/>
<path fill="#FFFFFF" d="M280.115,288.341c0.448,8.92-4.067,16.397-10.086,16.698c-6.023,0.294-11.26-6.691-11.696-15.624
	c-0.444-8.92,4.073-16.397,10.091-16.692C274.436,272.422,279.676,279.409,280.115,288.341z"/>
<path fill="#7A4A1C" d="M295.089,470.018c0,0,76.433,64.08,123.965,3.946C419.054,473.964,349.198,593.304,295.089,470.018z"/>
<g>
	<path fill="#FEE3D3" d="M291.74,304.844c-1.357-27.394-17.427-48.855-35.899-47.941c-18.102,0.896-31.739,22.949-31.003,49.599
		h66.927C291.752,305.942,291.768,305.402,291.74,304.844z"/>
</g>
<path fill="#FEE3D3" d="M224.838,306.048c0.013,0.552-0.003,1.098,0.024,1.657c1.356,27.392,17.436,48.854,35.901,47.934
	c18.096-0.896,31.737-22.948,31.001-49.591H224.838z"/>
<g>
	<path fill="#FEE3D3" d="M471.51,304.844c-1.355-27.394-17.429-48.855-35.897-47.941c-18.104,0.896-31.743,22.949-31.007,49.599
		h66.93C471.52,305.942,471.537,305.402,471.51,304.844z"/>
</g>
<path fill="#FEE3D3" d="M404.577,306.048c0.016,0.552-0.005,1.098,0.021,1.657c1.356,27.392,17.438,48.854,35.903,47.934
	c18.093-0.896,31.74-22.948,31.004-49.591H404.577z"/>
<path fill="#5E3D15" d="M394.291,37.55C368.878,37.532,396.766,0,396.766,0c-17.377,4.173-26.436,17.463-34.935,23.666
	c-12.776-9.334-36.305-26.838-57.859-17.74c0,0,29.105,9.123,27.991,34.203C66.896,46.117,69.071,288.771,69.071,288.771
	s4.104-24.065,102.811-63.516c0,0,19.473-13.408,9.233-50.077c0,0,37.473,35.908,39.229,55.271c0,0,8.981-11.799,31.156-10.805
	c0,0-2.312-45.332-37.657-81.374c0,0,80.755,17.048,100.312,76.948c0,0,114.133-15.667,169.833-11.99
	c88.555,5.857,143.291,46.032,143.291,46.032C595.788,76.651,471.19,41.998,394.291,37.55z"/>
</svg>
